<svg width="112" height="35" viewBox="0 0 112 35" fill="none" xmlns="http://www.w3.org/2000/svg">
<path d="M-5.96046e-08 17.5V15.2273L18.2955 5.90909V9.54545L4.26136 16.3068L4.375 16.0795V16.6477L4.26136 16.4205L18.2955 23.1818V26.8182L-5.96046e-08 17.5ZM49.2649 10.4545H45.7422C45.5339 9.44129 45.1693 8.55114 44.6484 7.78409C44.1371 7.01705 43.5121 6.37311 42.7734 5.85227C42.0443 5.32197 41.2346 4.92424 40.3445 4.65909C39.4543 4.39394 38.5263 4.26136 37.5604 4.26136C35.799 4.26136 34.2034 4.70644 32.7734 5.59659C31.353 6.48674 30.2214 7.7983 29.3786 9.53125C28.5452 11.2642 28.1286 13.3902 28.1286 15.9091C28.1286 18.428 28.5452 20.554 29.3786 22.2869C30.2214 24.0199 31.353 25.3314 32.7734 26.2216C34.2034 27.1117 35.799 27.5568 37.5604 27.5568C38.5263 27.5568 39.4543 27.4242 40.3445 27.1591C41.2346 26.8939 42.0443 26.5009 42.7734 25.9801C43.5121 25.4498 44.1371 24.8011 44.6484 24.0341C45.1693 23.2576 45.5339 22.3674 45.7422 21.3636H49.2649C48.9998 22.8504 48.5168 24.1809 47.8161 25.3551C47.1153 26.5294 46.2441 27.5284 45.2024 28.3523C44.1607 29.1667 42.9912 29.7869 41.6939 30.2131C40.406 30.6392 39.0282 30.8523 37.5604 30.8523C35.0793 30.8523 32.8729 30.2462 30.9411 29.0341C29.0092 27.822 27.4893 26.0985 26.3814 23.8636C25.2734 21.6288 24.7195 18.9773 24.7195 15.9091C24.7195 12.8409 25.2734 10.1894 26.3814 7.95455C27.4893 5.7197 29.0092 3.99621 30.9411 2.78409C32.8729 1.57197 35.0793 0.96591 37.5604 0.96591C39.0282 0.96591 40.406 1.17898 41.6939 1.60511C42.9912 2.03125 44.1607 2.65625 45.2024 3.48011C46.2441 4.29451 47.1153 5.28883 47.8161 6.46307C48.5168 7.62784 48.9998 8.95833 49.2649 10.4545ZM64.7869 0L55.4119 34.8295H52.3437L61.7188 0H64.7869ZM69.2152 30.4545V1.36364H86.772V4.48864H72.7379V14.3182H85.8629V17.4432H72.7379V27.3295H86.9993V30.4545H69.2152ZM111.928 17.5L93.6328 26.8182V23.1818L107.667 16.4205L107.553 16.6477V16.0795L107.667 16.3068L93.6328 9.54545V5.90909L111.928 15.2273V17.5Z" fill="white"/>
</svg>
