<svg width="172" height="35" viewBox="0 0 172 35" fill="none" xmlns="http://www.w3.org/2000/svg">
<path d="M-5.96046e-08 17.5V15.2273L18.2955 5.90909V9.54545L4.26136 16.3068L4.375 16.0795V16.6477L4.26136 16.4205L18.2955 23.1818V26.8182L-5.96046e-08 17.5ZM49.2649 10.4545H45.7422C45.5339 9.44129 45.1693 8.55114 44.6484 7.78409C44.1371 7.01705 43.5121 6.37311 42.7734 5.85227C42.0443 5.32197 41.2346 4.92424 40.3445 4.65909C39.4543 4.39394 38.5263 4.26136 37.5604 4.26136C35.799 4.26136 34.2034 4.70644 32.7734 5.59659C31.353 6.48674 30.2214 7.7983 29.3786 9.53125C28.5452 11.2642 28.1286 13.3902 28.1286 15.9091C28.1286 18.428 28.5452 20.554 29.3786 22.2869C30.2214 24.0199 31.353 25.3314 32.7734 26.2216C34.2034 27.1117 35.799 27.5568 37.5604 27.5568C38.5263 27.5568 39.4543 27.4242 40.3445 27.1591C41.2346 26.8939 42.0443 26.5009 42.7734 25.9801C43.5121 25.4498 44.1371 24.8011 44.6484 24.0341C45.1693 23.2576 45.5339 22.3674 45.7422 21.3636H49.2649C48.9998 22.8504 48.5168 24.1809 47.8161 25.3551C47.1153 26.5294 46.2441 27.5284 45.2024 28.3523C44.1607 29.1667 42.9912 29.7869 41.6939 30.2131C40.406 30.6392 39.0282 30.8523 37.5604 30.8523C35.0793 30.8523 32.8729 30.2462 30.9411 29.0341C29.0092 27.822 27.4893 26.0985 26.3814 23.8636C25.2734 21.6288 24.7195 18.9773 24.7195 15.9091C24.7195 12.8409 25.2734 10.1894 26.3814 7.95455C27.4893 5.7197 29.0092 3.99621 30.9411 2.78409C32.8729 1.57197 35.0793 0.96591 37.5604 0.96591C39.0282 0.96591 40.406 1.17898 41.6939 1.60511C42.9912 2.03125 44.1607 2.65625 45.2024 3.48011C46.2441 4.29451 47.1153 5.28883 47.8161 6.46307C48.5168 7.62784 48.9998 8.95833 49.2649 10.4545ZM79.5028 15.9091C79.5028 18.9773 78.9489 21.6288 77.8409 23.8636C76.733 26.0985 75.2131 27.822 73.2813 29.0341C71.3494 30.2462 69.143 30.8523 66.6619 30.8523C64.1809 30.8523 61.9744 30.2462 60.0426 29.0341C58.1108 27.822 56.5909 26.0985 55.483 23.8636C54.375 21.6288 53.821 18.9773 53.821 15.9091C53.821 12.8409 54.375 10.1894 55.483 7.95455C56.5909 5.7197 58.1108 3.99621 60.0426 2.78409C61.9744 1.57197 64.1809 0.96591 66.6619 0.96591C69.143 0.96591 71.3494 1.57197 73.2813 2.78409C75.2131 3.99621 76.733 5.7197 77.8409 7.95455C78.9489 10.1894 79.5028 12.8409 79.5028 15.9091ZM76.0938 15.9091C76.0938 13.3902 75.6723 11.2642 74.8295 9.53125C73.9962 7.7983 72.8646 6.48674 71.4347 5.59659C70.0142 4.70644 68.4233 4.26136 66.6619 4.26136C64.9006 4.26136 63.3049 4.70644 61.875 5.59659C60.4545 6.48674 59.3229 7.7983 58.4801 9.53125C57.6468 11.2642 57.2301 13.3902 57.2301 15.9091C57.2301 18.428 57.6468 20.554 58.4801 22.2869C59.3229 24.0199 60.4545 25.3314 61.875 26.2216C63.3049 27.1117 64.9006 27.5568 66.6619 27.5568C68.4233 27.5568 70.0142 27.1117 71.4347 26.2216C72.8646 25.3314 73.9962 24.0199 74.8295 22.2869C75.6723 20.554 76.0938 18.428 76.0938 15.9091ZM94.4034 30.4545H85.4261V1.36364H94.8011C97.6231 1.36364 100.038 1.94602 102.045 3.1108C104.053 4.2661 105.592 5.92803 106.662 8.09659C107.732 10.2557 108.267 12.8409 108.267 15.8523C108.267 18.8826 107.727 21.4915 106.648 23.679C105.568 25.857 103.996 27.5331 101.932 28.7074C99.8674 29.8722 97.358 30.4545 94.4034 30.4545ZM88.9489 27.3295H94.1761C96.5814 27.3295 98.5748 26.8655 100.156 25.9375C101.738 25.0095 102.917 23.6884 103.693 21.9744C104.47 20.2604 104.858 18.2197 104.858 15.8523C104.858 13.5038 104.474 11.482 103.707 9.78693C102.94 8.08239 101.795 6.77557 100.27 5.86648C98.7453 4.94792 96.8466 4.48864 94.5739 4.48864H88.9489V27.3295ZM114.176 30.4545V1.36364H131.733V4.48864H117.699V14.3182H130.824V17.4432H117.699V27.3295H131.96V30.4545H114.176ZM147.912 0L138.537 34.8295H135.469L144.844 0H147.912ZM171.147 20.2273L152.852 29.5455V25.9091L166.886 19.1477L166.772 19.375V18.8068L166.886 19.0341L152.852 12.2727V8.63636L171.147 17.9545V20.2273Z" fill="white"/>
</svg>
