<svg width="128" height="128" viewBox="0 0 128 128" fill="none" xmlns="http://www.w3.org/2000/svg">
<path d="M8.03409 65.0455V62.7727L26.3295 53.4545V57.0909L12.2955 63.8523L12.4091 63.625V64.1932L12.2955 63.9659L26.3295 70.7273V74.3636L8.03409 65.0455ZM57.299 58H53.7763C53.5679 56.9867 53.2034 56.0966 52.6825 55.3295C52.1712 54.5625 51.5462 53.9186 50.8075 53.3977C50.0784 52.8674 49.2687 52.4697 48.3786 52.2045C47.4884 51.9394 46.5604 51.8068 45.5945 51.8068C43.8331 51.8068 42.2375 52.2519 40.8075 53.142C39.3871 54.0322 38.2554 55.3438 37.4126 57.0767C36.5793 58.8097 36.1626 60.9356 36.1626 63.4545C36.1626 65.9735 36.5793 68.0994 37.4126 69.8324C38.2554 71.5653 39.3871 72.8769 40.8075 73.767C42.2375 74.6572 43.8331 75.1023 45.5945 75.1023C46.5604 75.1023 47.4884 74.9697 48.3786 74.7045C49.2687 74.4394 50.0784 74.0464 50.8075 73.5256C51.5462 72.9953 52.1712 72.3466 52.6825 71.5795C53.2034 70.803 53.5679 69.9129 53.7763 68.9091H57.299C57.0339 70.3958 56.5509 71.7263 55.8501 72.9006C55.1494 74.0748 54.2782 75.0739 53.2365 75.8977C52.1948 76.7121 51.0253 77.3324 49.728 77.7585C48.4401 78.1847 47.0623 78.3977 45.5945 78.3977C43.1134 78.3977 40.907 77.7917 38.9751 76.5795C37.0433 75.3674 35.5234 73.6439 34.4155 71.4091C33.3075 69.1742 32.7536 66.5227 32.7536 63.4545C32.7536 60.3864 33.3075 57.7348 34.4155 55.5C35.5234 53.2652 37.0433 51.5417 38.9751 50.3295C40.907 49.1174 43.1134 48.5114 45.5945 48.5114C47.0623 48.5114 48.4401 48.7244 49.728 49.1506C51.0253 49.5767 52.1948 50.2017 53.2365 51.0256C54.2782 51.84 55.1494 52.8343 55.8501 54.0085C56.5509 55.1733 57.0339 56.5038 57.299 58ZM72.821 47.5455L63.446 82.375H60.3778L69.7528 47.5455H72.821ZM77.2493 78V48.9091H94.8061V52.0341H80.772V61.8636H93.897V64.9886H80.772V74.875H95.0334V78H77.2493ZM119.962 65.0455L101.667 74.3636V70.7273L115.701 63.9659L115.587 64.1932V63.625L115.701 63.8523L101.667 57.0909V53.4545L119.962 62.7727V65.0455Z" fill="white"/>
</svg>
